<svg width="16" height="24" viewBox="0 0 16 24" fill="none" xmlns="http://www.w3.org/2000/svg">
<path d="M1.17382 13.4414L12.4243 22.8168C12.8067 23.1332 13.299 23.2851 13.7932 23.2393C14.2874 23.1935 14.7434 22.9537 15.0612 22.5724C15.379 22.1912 15.5327 21.6995 15.4888 21.2051C15.4449 20.7107 15.2068 20.2539 14.8267 19.9347L5.30485 12.0003L14.8267 4.0659C15.2083 3.74711 15.4476 3.28991 15.4923 2.79474C15.5369 2.29957 15.3832 1.80692 15.0649 1.42501C14.7466 1.0431 14.2896 0.803173 13.7945 0.757923C13.2994 0.712675 12.8066 0.865808 12.4243 1.18369L1.17382 10.5592C0.962862 10.7355 0.793172 10.9559 0.676733 11.2049C0.560293 11.4539 0.499943 11.7255 0.499943 12.0003C0.499943 12.2752 0.560293 12.5468 0.676733 12.7958C0.793172 13.0448 0.962862 13.2652 1.17382 13.4414Z" fill="white"/>
</svg>
